# Blender v2.79 (sub 0) OBJ File: ''
# www.blender.org
mtllib grm_3b_print.mtl
o print
v 115.000000 35.999996 14.050005
v -117.500000 37.902111 13.431973
v -120.000000 35.999996 14.050005
v 114.000000 37.902111 13.431973
v -16.000000 11.999998 14.050002
v -64.000000 14.000000 14.050002
v -64.000000 11.999998 14.050002
v -16.000000 14.000000 14.050002
v -16.000000 10.202411 13.173260
v -64.000000 11.999998 14.050004
v -64.000000 10.202411 13.173260
v -16.000000 11.999998 14.050004
v 64.000000 11.999998 14.050002
v 16.000000 14.000000 14.050002
v 16.000000 11.999998 14.050002
v 64.000000 14.000000 14.050002
v 64.000000 10.202411 13.173260
v 16.000000 11.999998 14.050004
v 16.000000 10.202411 13.173260
v 64.000000 11.999998 14.050004
v -96.000000 11.999998 14.050002
v -120.000000 14.000000 14.050002
v -120.000000 11.999998 14.050002
v -96.000000 14.000000 14.050002
v -96.000000 10.202411 13.173260
v -112.000000 11.999998 14.050004
v -115.550003 10.202411 13.173260
v -96.000000 11.999998 14.050004
v 114.550003 10.202411 13.173260
v 96.000000 11.999998 14.050004
v 96.000000 10.202411 13.173260
v 115.000000 11.999998 14.050004
v 115.000000 11.999998 14.050002
v 96.000000 14.000000 14.050002
v 96.000000 11.999998 14.050002
v 115.000000 14.000000 14.050002
v -120.000000 36.000008 -14.049976
v 114.000000 37.902119 -13.431979
v 115.000000 36.000004 -14.050011
v -117.500000 37.902119 -13.431943
v 15.999997 12.000003 -14.050000
v 63.999996 14.000004 -14.050007
v 63.999996 12.000003 -14.050007
v 15.999997 14.000004 -14.049999
v 15.999998 10.202415 -13.173258
v 63.999996 12.000004 -14.050009
v 63.999996 10.202415 -13.173265
v 15.999997 12.000004 -14.050003
v -64.000000 12.000002 -14.049988
v -16.000002 14.000004 -14.049995
v -16.000002 12.000002 -14.049994
v -64.000000 14.000004 -14.049986
v -64.000000 10.202415 -13.173246
v -16.000002 12.000004 -14.049997
v -16.000002 10.202415 -13.173254
v -64.000000 12.000004 -14.049991
v 96.000000 12.000002 -14.050012
v 115.000000 14.000004 -14.050014
v 115.000000 12.000002 -14.050014
v 96.000000 14.000005 -14.050011
v 96.000000 10.202415 -13.173271
v 115.000000 12.000004 -14.050016
v 114.550003 10.202415 -13.173274
v 96.000000 12.000003 -14.050014
v -115.550003 10.202415 -13.173239
v -96.000000 12.000004 -14.049984
v -96.000000 10.202415 -13.173243
v -112.000000 12.000003 -14.049982
v -120.000000 12.000002 -14.049980
v -96.000000 14.000006 -14.049982
v -96.000000 12.000002 -14.049982
v -120.000000 14.000007 -14.049979
v 115.050003 12.000002 -14.050014
v 115.050003 14.000000 13.949988
v 115.050003 12.000000 13.949988
v 115.050003 14.000004 -14.050014
v 114.532364 10.068151 -13.050016
v 115.050003 12.000000 13.949984
v 114.532364 10.068146 12.949984
v 115.050003 12.000004 -14.050016
vt 0.000000 0.000000
vt 1.000000 1.000000
vt 0.000003 1.000000
vt 0.999997 0.000000
vt 0.000000 0.000000
vt 1.000000 1.000000
vt 0.000003 1.000000
vt 0.999997 0.000000
vt 0.000000 0.000000
vt 1.000000 1.000000
vt 0.000003 1.000000
vt 0.999997 0.000000
vt 0.000000 0.000000
vt 1.000000 1.000000
vt 0.000003 1.000000
vt 0.999997 0.000000
vt 0.000000 0.000000
vt 1.000000 1.000000
vt 0.000003 1.000000
vt 0.999997 0.000000
vt 0.000000 0.000000
vt 1.000000 1.000000
vt 0.000003 1.000000
vt 0.999997 0.000000
vt 0.000000 0.000000
vt 1.000000 1.000000
vt 0.000003 1.000000
vt 0.999997 0.000000
vt 0.000000 0.000000
vt 1.000000 1.000000
vt 0.000003 1.000000
vt 0.999997 0.000000
vt 0.000000 0.000000
vt 1.000000 1.000000
vt 0.000003 1.000000
vt 0.999997 0.000000
vt 0.000000 0.000000
vt 1.000000 1.000000
vt 0.000003 1.000000
vt 0.999997 0.000000
vt 0.000000 0.000000
vt 1.000000 1.000000
vt 0.000003 1.000000
vt 0.999997 0.000000
vt 0.000000 0.000000
vt 1.000000 1.000000
vt 0.000003 1.000000
vt 0.999997 0.000000
vt 0.000000 0.000000
vt 1.000000 1.000000
vt 0.000003 1.000000
vt 0.999997 0.000000
vt 0.000000 0.000000
vt 1.000000 1.000000
vt 0.000003 1.000000
vt 0.999997 0.000000
vt 0.000000 0.000000
vt 1.000000 1.000000
vt 0.000003 1.000000
vt 0.999997 0.000000
vt 0.000000 0.000000
vt 1.000000 1.000000
vt 0.000003 1.000000
vt 0.999997 0.000000
vt 0.000000 0.000000
vt 1.000000 1.000000
vt 0.000003 1.000000
vt 0.999997 0.000000
vt 0.000000 0.000000
vt 1.000000 1.000000
vt 0.000003 1.000000
vt 0.999997 0.000000
vt 0.000000 0.000000
vt 1.000000 1.000000
vt 0.000003 1.000000
vt 0.999997 0.000000
vt 0.000000 0.000000
vt 1.000000 1.000000
vt 0.000003 1.000000
vt 0.999997 0.000000
vn 0.0000 0.3090 0.9511
vn 0.0000 0.0000 1.0000
vn 0.0000 -0.4384 0.8988
vn -0.0000 0.3090 -0.9511
vn -0.0000 0.0000 -1.0000
vn -0.0000 -0.4384 -0.8988
vn 1.0000 0.0000 0.0000
vn 0.9659 -0.2588 -0.0000
usemtl None.013
s 1
f 1/1/1 2/2/1 3/3/1
f 1/1/1 4/4/1 2/2/1
f 5/5/2 6/6/2 7/7/2
f 5/5/2 8/8/2 6/6/2
f 9/9/3 10/10/3 11/11/3
f 9/9/3 12/12/3 10/10/3
f 13/13/2 14/14/2 15/15/2
f 13/13/2 16/16/2 14/14/2
f 17/17/3 18/18/3 19/19/3
f 17/17/3 20/20/3 18/18/3
f 21/21/2 22/22/2 23/23/2
f 21/21/2 24/24/2 22/22/2
f 25/25/3 26/26/3 27/27/3
f 25/25/3 28/28/3 26/26/3
f 29/29/3 30/30/3 31/31/3
f 29/29/3 32/32/3 30/30/3
f 33/33/2 34/34/2 35/35/2
f 33/33/2 36/36/2 34/34/2
f 37/37/4 38/38/4 39/39/4
f 37/37/4 40/40/4 38/38/4
f 41/41/5 42/42/5 43/43/5
f 41/41/5 44/44/5 42/42/5
f 45/45/6 46/46/6 47/47/6
f 45/45/6 48/48/6 46/46/6
f 49/49/5 50/50/5 51/51/5
f 49/49/5 52/52/5 50/50/5
f 53/53/6 54/54/6 55/55/6
f 53/53/6 56/56/6 54/54/6
f 57/57/5 58/58/5 59/59/5
f 57/57/5 60/60/5 58/58/5
f 61/61/6 62/62/6 63/63/6
f 61/61/6 64/64/6 62/62/6
f 65/65/6 66/66/6 67/67/6
f 65/65/6 68/68/6 66/66/6
f 69/69/5 70/70/5 71/71/5
f 69/69/5 72/72/5 70/70/5
f 73/73/7 74/74/7 75/75/7
f 73/73/7 76/76/7 74/74/7
f 77/77/8 78/78/8 79/79/8
f 77/77/8 80/80/8 78/78/8
