# Blender v2.79 (sub 0) OBJ File: ''
# www.blender.org
mtllib grw_4_head.mtl
o cube
v 2.000000 10.000000 2.000000
v 2.000000 6.000000 2.000000
v 2.000000 10.000000 -2.000000
v 2.000000 6.000000 -2.000000
v -2.000000 10.000000 -2.000000
v -2.000000 6.000000 -2.000000
v -2.000000 10.000000 2.000000
v -2.000000 6.000000 2.000000
v 2.000000 -6.000000 1.999998
v 2.000000 -10.000000 1.999997
v 2.000000 -6.000000 -2.000002
v 2.000000 -10.000000 -2.000003
v -2.000000 -6.000000 -2.000002
v -2.000000 -10.000000 -2.000003
v -2.000000 -6.000000 1.999998
v -2.000000 -10.000000 1.999997
v 1.000000 6.000000 1.000000
v 1.000000 -6.000000 0.999998
v 1.000000 6.000000 -1.000000
v 1.000000 -6.000000 -1.000002
v -1.000000 6.000000 -1.000000
v -1.000000 -6.000000 -1.000002
v -1.000000 6.000000 1.000000
v -1.000000 -6.000000 0.999998
vt 0.000000 1.000000
vt 0.000000 0.500000
vt 0.500000 1.000000
vt 0.500000 0.500000
vt 0.000000 1.000000
vt 0.000000 0.500000
vt 0.500000 1.000000
vt 0.500000 0.500000
vt 0.000000 0.500000
vt 0.500000 0.500000
vt 0.000000 1.000000
vt 0.500000 1.000000
vt 0.000000 1.000000
vt 0.000000 0.500000
vt 0.500000 1.000000
vt 0.500000 0.500000
vt 0.000000 1.000000
vt 0.000000 0.500000
vt 0.500000 1.000000
vt 0.500000 0.500000
vt 0.687500 0.625000
vt 0.687500 0.500000
vt 0.812500 0.625000
vt 0.812500 0.500000
vt 0.687500 0.625000
vt 0.687500 0.500000
vt 0.812500 0.625000
vt 0.812500 0.500000
vt 0.687500 0.812500
vt 0.687500 0.687500
vt 0.812500 0.812500
vt 0.812500 0.687500
vt 0.687500 0.812500
vt 0.687500 0.687500
vt 0.812500 0.812500
vt 0.812500 0.687500
vt 0.687500 0.625000
vt 0.687500 0.500000
vt 0.812500 0.625000
vt 0.812500 0.500000
vt 0.687500 0.625000
vt 0.687500 0.500000
vt 0.812500 0.625000
vt 0.812500 0.500000
vt 0.718750 1.000000
vt 0.718750 0.625000
vt 0.781250 1.000000
vt 0.781250 0.625000
vt 0.718750 1.000000
vt 0.718750 0.625000
vt 0.781250 1.000000
vt 0.781250 0.625000
vt 0.718750 0.781250
vt 0.718750 0.718750
vt 0.781250 0.781250
vt 0.781250 0.718750
vt 0.718750 0.781250
vt 0.718750 0.718750
vt 0.781250 0.781250
vt 0.781250 0.718750
vt 0.718750 1.000000
vt 0.718750 0.625000
vt 0.781250 1.000000
vt 0.781250 0.625000
vt 0.718750 1.000000
vt 0.718750 0.625000
vt 0.781250 1.000000
vt 0.781250 0.625000
vn 1.0000 -0.0000 0.0000
vn -1.0000 0.0000 0.0000
vn 0.0000 1.0000 0.0000
vn 0.0000 -1.0000 0.0000
vn 0.0000 -0.0000 1.0000
vn 0.0000 0.0000 -1.0000
usemtl 0
s 1
f 1/1/1 2/2/1 3/3/1
f 2/2/1 4/4/1 3/3/1
f 5/5/2 6/6/2 7/7/2
f 6/6/2 8/8/2 7/7/2
f 5/5/3 7/9/3 3/3/3
f 7/9/3 1/10/3 3/3/3
f 8/11/4 6/6/4 2/12/4
f 6/6/4 4/4/4 2/12/4
f 7/13/5 8/14/5 1/15/5
f 8/14/5 2/16/5 1/15/5
f 3/17/6 4/18/6 5/19/6
f 4/18/6 6/20/6 5/19/6
f 9/21/1 10/22/1 11/23/1
f 10/22/1 12/24/1 11/23/1
f 13/25/2 14/26/2 15/27/2
f 14/26/2 16/28/2 15/27/2
f 13/29/3 15/30/3 11/31/3
f 15/30/3 9/32/3 11/31/3
f 16/33/4 14/34/4 10/35/4
f 14/34/4 12/36/4 10/35/4
f 15/37/5 16/38/5 9/39/5
f 16/38/5 10/40/5 9/39/5
f 11/41/6 12/42/6 13/43/6
f 12/42/6 14/44/6 13/43/6
f 17/45/1 18/46/1 19/47/1
f 18/46/1 20/48/1 19/47/1
f 21/49/2 22/50/2 23/51/2
f 22/50/2 24/52/2 23/51/2
f 21/53/3 23/54/3 19/55/3
f 23/54/3 17/56/3 19/55/3
f 24/57/4 22/58/4 18/59/4
f 22/58/4 20/60/4 18/59/4
f 23/61/5 24/62/5 17/63/5
f 24/62/5 18/64/5 17/63/5
f 19/65/6 20/66/6 21/67/6
f 20/66/6 22/68/6 21/67/6
